<svg xmlns="http://www.w3.org/2000/svg" viewBox="0 0 248 219.38"><path d="m176.39 114.38 3.4652-1.2996c28.757-10.829 42.739-27.217 42.739-50.078 0-15.823-6.3288-28.721-19.336-39.442-13.777-11.178-32.728-16.845-56.323-16.845h-140.43v29.864h16.352v146.43h-16.352v29.804h95.765v-29.804h-16.942v-63.085h34.713l39.706 63.085h-22.284v29.804h103.71v-29.804h-19.612zm-27.361-31.501-0.0725 0.06024c-7.3996 5.7758-18.301 8.7114-32.427 8.7114h-31.2v-55.072h38.503c12.033 0 21.333 3.357 27.674 9.9387 2.2879 2.2444 4.0903 4.9355 5.2947 7.9056 1.2049 2.9705 1.786 6.1563 1.7081 9.3605-0.0122 7.3879-3.2006 13.813-9.4815 19.095z" fill="#fff"/></svg>
